<svg width="124" height="20" viewBox="0 0 124 20" fill="none" xmlns="http://www.w3.org/2000/svg">
<g clip-path="url(#clip0_1434_983)">
<path fill-rule="evenodd" clip-rule="evenodd" d="M0.124329 0.828787V15.2371H5.40495C6.5967 15.2371 7.65832 15.0347 8.58979 14.6299C9.47563 14.2567 10.2761 13.7069 10.9425 13.014C11.5743 12.3499 12.0668 11.5661 12.391 10.7087C12.7179 9.85445 12.885 8.94744 12.8841 8.03281C12.8848 7.11725 12.714 6.20967 12.3807 5.35693C12.05 4.50038 11.5544 3.71711 10.9219 3.05157C10.2579 2.3607 9.46117 1.81118 8.57948 1.436C7.65488 1.03147 6.5967 0.829062 5.40495 0.828787H0.124329ZM5.24062 3.71054C5.85883 3.69987 6.47207 3.82274 7.03845 4.07075C7.54608 4.29682 8.00096 4.62632 8.37402 5.03817C8.7374 5.44408 9.01985 5.9157 9.20619 6.42765C9.58972 7.46718 9.58972 8.60946 9.20619 9.64899C9.01821 10.1571 8.73586 10.625 8.37402 11.0282C8.00115 11.4402 7.54622 11.7698 7.03845 11.9956C6.47211 12.2437 5.85884 12.3666 5.24062 12.3558H3.45299V3.71054H5.24062ZM14.579 2.79456C14.7848 3.27512 15.1672 3.6583 15.6474 3.86497C15.8978 3.97012 16.167 4.02275 16.4386 4.01961C16.7133 4.02203 16.9858 3.96945 17.2399 3.86497C17.482 3.76497 17.702 3.61806 17.8871 3.4327C18.0706 3.24968 18.2171 3.03302 18.3186 2.79456C18.4223 2.55055 18.475 2.28786 18.4732 2.0227C18.4742 1.75429 18.4217 1.48837 18.3186 1.24054C18.2204 1.00028 18.0735 0.782982 17.8871 0.602396C17.4982 0.2282 16.9782 0.0212787 16.4386 0.0260042C16.1738 0.0197439 15.9106 0.0669841 15.6646 0.164895C15.4185 0.262805 15.1948 0.409371 15.0068 0.595811C14.8187 0.782251 14.6703 1.00473 14.5703 1.24991C14.4703 1.4951 14.4208 1.75794 14.4248 2.0227C14.423 2.28782 14.4754 2.5505 14.579 2.79456V2.79456ZM14.8769 15.2379H18.0206V5.31611H14.8769V15.2371V15.2379ZM26.5367 7.95116C26.8227 8.08217 27.0781 8.27147 27.2867 8.50693C27.715 8.99671 27.9489 9.62651 27.9442 10.2771C27.9458 10.6109 27.8866 10.9422 27.7696 11.2549C27.6609 11.5506 27.4971 11.8231 27.2867 12.0577C27.0759 12.288 26.8208 12.4735 26.5367 12.6031C26.2306 12.743 25.8973 12.8134 25.5607 12.8093C25.2274 12.8142 24.8973 12.7437 24.5951 12.6031C24.3125 12.4718 24.0594 12.2846 23.8511 12.0529C23.6427 11.8212 23.4834 11.5498 23.3828 11.2549C23.2722 10.9408 23.2165 10.6101 23.2184 10.2771C23.216 9.94751 23.2717 9.62005 23.3828 9.30971C23.4884 9.01475 23.6487 8.74238 23.8554 8.50693C24.0615 8.27322 24.3132 8.08409 24.5951 7.95116C24.8974 7.81071 25.2274 7.74023 25.5607 7.74497C25.8974 7.74085 26.2309 7.81115 26.5372 7.95085L26.5367 7.95116ZM31.0879 5.31642H27.9447V6.73641C27.6616 6.20634 27.2198 5.77809 26.6811 5.51167C26.1267 5.22019 25.5096 5.06828 24.8832 5.0691C23.9014 5.04978 22.9391 5.34363 22.1355 5.90804C21.332 6.47245 20.7291 7.27808 20.4142 8.20817C20.1837 8.87324 20.069 9.57295 20.0752 10.2768C20.0664 10.9693 20.1884 11.6572 20.4347 12.3044C20.6601 12.8927 20.9987 13.4312 21.4312 13.8893C21.8625 14.3399 22.3842 14.6941 22.9621 14.9288C23.5852 15.181 24.2522 15.307 24.9243 15.2993C25.5467 15.3045 26.1607 15.156 26.712 14.867C27.2175 14.6172 27.6441 14.2325 27.9447 13.7555V15.4227C27.9447 16.2048 27.7256 16.7743 27.2872 17.1312C26.8489 17.488 26.2599 17.6664 25.5202 17.6663C24.8351 17.6663 24.3111 17.4948 23.9484 17.1518C23.61 16.8563 23.3939 16.4453 23.3422 15.9991H20.1985C20.2238 16.5404 20.3639 17.0701 20.6094 17.5531C20.8613 18.047 21.2108 18.4847 21.6367 18.8396C22.0926 19.2212 22.62 19.5081 23.188 19.6835C23.8112 19.8897 24.5886 19.9926 25.5202 19.9923C26.3094 20.0075 27.0971 19.9175 27.8626 19.7248C28.4639 19.5668 29.029 19.2942 29.5269 18.922C30.0395 18.5339 30.443 18.0198 30.698 17.4296C30.9581 16.8327 31.0883 16.0814 31.0885 15.1757V5.31611L31.0879 5.31642ZM33.3994 2.79487C33.6054 3.27541 33.988 3.65848 34.4684 3.86497C34.7187 3.97011 34.988 4.02274 35.2595 4.01961C35.5342 4.02203 35.8067 3.96945 36.0608 3.86497C36.303 3.76497 36.5229 3.61806 36.708 3.4327C36.8915 3.24968 37.038 3.03302 37.1395 2.79456C37.2433 2.55055 37.2959 2.28786 37.2941 2.0227C37.2952 1.75429 37.2426 1.48837 37.1395 1.24054C37.0414 1.00028 36.8944 0.782982 36.708 0.602396C36.3192 0.2282 35.7991 0.0212787 35.2595 0.0260042C34.9948 0.0197289 34.7315 0.0669597 34.4855 0.164866C34.2395 0.262773 34.0157 0.40934 33.8277 0.595784C33.6397 0.782228 33.4912 1.00471 33.3913 1.2499C33.2913 1.49509 33.2418 1.75794 33.2459 2.0227C33.244 2.28781 33.2964 2.55049 33.3999 2.79456L33.3994 2.79487ZM33.6973 15.2382H36.841V5.31611H33.6978V15.2371L33.6973 15.2382ZM45.6967 12.8298C45.5211 12.8667 45.3419 12.884 45.1625 12.8814H44.567C44.3871 12.8827 44.2077 12.8619 44.0328 12.8195C43.8709 12.7796 43.7222 12.6981 43.6013 12.5831C43.4639 12.4427 43.3648 12.2694 43.3136 12.0797C43.2363 11.7918 43.2016 11.4942 43.2105 11.1962V7.6627H45.4707V5.31611H43.211V2.3726H40.0873V5.31611H38.5263V7.6627H40.0878V11.903C40.0878 12.7263 40.2009 13.3747 40.4269 13.8482C40.6112 14.2716 40.9101 14.6352 41.2899 14.898C41.6336 15.1222 42.0233 15.2664 42.4302 15.3199C42.8184 15.3732 43.2096 15.4007 43.6014 15.4024C44.0669 15.4024 44.4744 15.3852 44.824 15.3508C45.1736 15.3165 45.4647 15.2787 45.6972 15.2374V12.8292L45.6967 12.8298ZM51.1211 12.603C50.8411 12.4715 50.5898 12.2862 50.3815 12.0575C50.171 11.823 50.0071 11.5506 49.8987 11.2548C49.7814 10.9422 49.7222 10.6109 49.7239 10.277C49.7193 9.62642 49.9532 8.99666 50.3815 8.50683C50.5876 8.27314 50.8393 8.08402 51.1211 7.95105C51.425 7.81535 51.7541 7.74522 52.0869 7.74522C52.4197 7.74522 52.7487 7.81535 53.0526 7.95105C53.3344 8.08399 53.5861 8.27312 53.7923 8.50683C54.2206 8.99661 54.4545 9.6264 54.4498 10.277C54.4514 10.6108 54.3922 10.9422 54.2752 11.2548C54.1666 11.5506 54.0027 11.823 53.7923 12.0575C53.5839 12.2862 53.3326 12.4716 53.0526 12.603C52.7488 12.7386 52.4198 12.8087 52.0871 12.8087C51.7544 12.8086 51.4254 12.7385 51.1217 12.6028L51.1211 12.603ZM54.4498 5.31631V6.73641C54.3152 6.50226 54.1493 6.28756 53.9567 6.09827C53.7459 5.88847 53.5074 5.70843 53.2478 5.56312C52.9721 5.40879 52.6789 5.28787 52.3745 5.20291C52.0672 5.1148 51.7491 5.06969 51.4294 5.06889C50.7542 5.06121 50.0851 5.19805 49.4671 5.47023C48.8879 5.72589 48.3671 6.09712 47.9364 6.56116C47.501 7.03869 47.1656 7.59861 46.9501 8.20786C46.7128 8.87146 46.5945 9.57178 46.6008 10.2765C46.5945 10.9813 46.7128 11.6816 46.9501 12.3452C47.1655 12.9545 47.5009 13.5144 47.9364 13.9919C48.367 14.4561 48.8879 14.8273 49.4671 15.0829C50.0852 15.3552 50.7545 15.4922 51.4299 15.4846C51.7496 15.4837 52.0677 15.4386 52.3751 15.3505C52.678 15.2661 52.9709 15.1488 53.2484 15.0006C53.5072 14.8626 53.7458 14.6894 53.9572 14.486C54.155 14.2974 54.3214 14.0786 54.4503 13.8377V15.2371H57.594V5.31611H54.4503L54.4498 5.31631ZM60.2642 15.2378H63.4086V0.828787H60.2642V15.2371V15.2378Z" fill="#1F2A38"/>
<path fill-rule="evenodd" clip-rule="evenodd" d="M88.5336 9.04228C88.264 8.96301 87.9998 8.86659 87.7426 8.75362C87.5624 8.67955 87.3984 8.57118 87.2597 8.43455C87.1486 8.31451 87.0895 8.15541 87.0953 7.99197C87.0872 7.85924 87.1154 7.72681 87.177 7.60893C87.2385 7.49105 87.3311 7.39219 87.4446 7.323C87.6926 7.17465 87.9776 7.09958 88.2665 7.10651C88.7048 7.10651 89.0301 7.21971 89.2425 7.4461C89.4548 7.67249 89.561 7.99153 89.561 8.40321H92.6641C92.6668 7.95039 92.5758 7.50191 92.397 7.08589C92.2183 6.67348 91.9478 6.30735 91.606 6.01548C91.2136 5.69063 90.7591 5.44902 90.2704 5.30538C89.6605 5.12405 89.0265 5.03713 88.3903 5.04764C87.0476 5.04764 85.9826 5.29465 85.1952 5.78868C84.4079 6.2827 84.0139 7.04476 84.0132 8.07486C83.9984 8.48685 84.083 8.89634 84.2598 9.26878C84.4185 9.5779 84.6472 9.84572 84.9276 10.0509C85.2286 10.2678 85.5567 10.4443 85.9036 10.5759C86.2733 10.7202 86.6637 10.854 87.0747 10.9772C87.5403 11.1284 87.941 11.2554 88.2768 11.3581C88.558 11.4406 88.8328 11.544 89.0986 11.6673C89.276 11.7455 89.4365 11.8573 89.5712 11.9966C89.6787 12.1263 89.7339 12.2915 89.7259 12.4598C89.7259 12.7892 89.606 13.0259 89.3663 13.1699C89.08 13.3255 88.7569 13.4003 88.4314 13.3864C87.9655 13.3864 87.5854 13.273 87.291 13.0462C86.9966 12.8194 86.8494 12.4455 86.8493 11.9244H83.7668C83.7668 13.0771 84.1743 13.9622 84.9893 14.5797C85.8042 15.1972 86.9172 15.506 88.3282 15.506C88.911 15.5091 89.4927 15.4538 90.0645 15.341C90.5691 15.2454 91.0526 15.0607 91.4925 14.7956C91.8925 14.5529 92.2247 14.213 92.4582 13.8075C92.691 13.4029 92.8074 12.9055 92.8075 12.3152C92.8225 11.9021 92.7342 11.4918 92.5507 11.1214C92.3826 10.8096 92.1475 10.539 91.8624 10.3289C91.5532 10.1048 91.2144 9.92473 90.8556 9.79383C90.4719 9.6495 90.061 9.51569 89.6228 9.39239C89.2117 9.25527 88.8486 9.13857 88.5336 9.04228ZM99.0126 9.04228C98.743 8.96301 98.4788 8.86659 98.2215 8.75362C98.0414 8.67955 97.8774 8.57118 97.7386 8.43455C97.6276 8.31451 97.5685 8.15541 97.5743 7.99197C97.5662 7.85924 97.5944 7.72681 97.6559 7.60893C97.7175 7.49105 97.81 7.39219 97.9236 7.323C98.1716 7.17465 98.4565 7.09958 98.7454 7.10651C99.1837 7.10651 99.509 7.21971 99.7214 7.4461C99.9339 7.67249 100.04 7.99153 100.04 8.40321H103.142C103.145 7.95041 103.054 7.50193 102.875 7.08589C102.697 6.67348 102.426 6.30735 102.084 6.01548C101.692 5.69063 101.238 5.44902 100.749 5.30538C100.139 5.12405 99.5049 5.03713 98.8687 5.04764C97.5261 5.04764 96.461 5.29465 95.6737 5.78868C94.8863 6.2827 94.4925 7.04476 94.4921 8.07486C94.4774 8.48685 94.562 8.89634 94.7387 9.26878C94.8974 9.57792 95.1261 9.84575 95.4066 10.0509C95.7076 10.2678 96.0357 10.4443 96.3826 10.5759C96.7524 10.7202 97.1428 10.854 97.5537 10.9772C98.0193 11.1284 98.42 11.2554 98.7558 11.3581C99.037 11.4406 99.3117 11.544 99.5776 11.6673C99.755 11.7455 99.9155 11.8573 100.05 11.9966C100.158 12.1263 100.213 12.2915 100.205 12.4598C100.205 12.7892 100.085 13.0259 99.8452 13.1699C99.559 13.3255 99.2359 13.4003 98.9104 13.3864C98.4445 13.3864 98.0643 13.273 97.77 13.0462C97.4756 12.8194 97.3284 12.4455 97.3282 11.9244H94.2458C94.2458 13.0771 94.6532 13.9622 95.4682 14.5797C96.2832 15.1972 97.3962 15.506 98.8072 15.506C99.39 15.5091 99.9717 15.4538 100.543 15.341C101.048 15.2454 101.532 15.0607 101.971 14.7956C102.371 14.5529 102.704 14.213 102.937 13.8075C103.17 13.4029 103.287 12.9055 103.287 12.3152C103.302 11.902 103.213 11.4917 103.03 11.1214C102.862 10.8096 102.626 10.539 102.341 10.3289C102.032 10.1048 101.693 9.92472 101.334 9.79383C100.951 9.6495 100.54 9.51569 100.102 9.39239C99.6906 9.25527 99.3276 9.13857 99.0126 9.04228V9.04228ZM114.998 11.0389C115.048 10.7739 115.079 10.5056 115.091 10.2361C115.097 10.0029 115.101 9.78321 115.101 9.57744C115.102 8.98185 114.979 8.39256 114.741 7.84689C114.502 7.30123 114.152 6.81109 113.714 6.40754C113.246 5.9817 112.702 5.64667 112.111 5.4195C111.439 5.16374 110.724 5.038 110.005 5.04898C109.229 5.03297 108.457 5.17294 107.735 5.46063C107.114 5.71454 106.554 6.09685 106.091 6.58249C105.644 7.05888 105.301 7.62323 105.085 8.2395C104.854 8.89397 104.739 9.58353 104.745 10.2773C104.737 10.9957 104.855 11.7099 105.095 12.3871C105.315 13.0062 105.665 13.5711 106.122 14.0441C106.593 14.5236 107.166 14.8926 107.797 15.1248C109.156 15.5905 110.626 15.6301 112.008 15.2382C112.539 15.0789 113.039 14.8319 113.488 14.5073C113.89 14.2156 114.232 13.8486 114.495 13.4267C114.745 13.0255 114.909 12.577 114.977 12.1094H111.896C111.783 12.4285 111.58 12.7076 111.31 12.9122C111.029 13.1321 110.614 13.2419 110.067 13.2415C109.716 13.2521 109.367 13.1926 109.039 13.0662C108.783 12.9624 108.555 12.8003 108.372 12.5928C108.198 12.39 108.072 12.1508 108.002 11.8929C107.925 11.6143 107.88 11.3276 107.868 11.0387H114.998V11.0389ZM111.454 7.70435C111.83 8.07486 112.018 8.58259 112.019 9.22754H107.868C107.868 8.55538 108.067 8.04077 108.464 7.68373C108.861 7.32668 109.368 7.1483 109.985 7.14857C110.588 7.14857 111.077 7.33383 111.454 7.70435ZM123.32 12.8297C123.144 12.8666 122.965 12.8839 122.786 12.8813H122.19C122.01 12.8826 121.83 12.8618 121.656 12.8194C121.494 12.7794 121.345 12.6979 121.224 12.583C121.087 12.4423 120.988 12.2691 120.936 12.0797C120.859 11.7917 120.825 11.4941 120.834 11.1962V7.66311H123.094V5.31661H120.834V2.37311H117.71V5.31661H116.149V7.66311H117.71V11.9034C117.71 12.7269 117.823 13.3752 118.049 13.8486C118.234 14.2721 118.532 14.6357 118.912 14.8984C119.256 15.1225 119.646 15.2667 120.053 15.3203C120.441 15.3736 120.832 15.4011 121.224 15.4028C121.69 15.4028 122.097 15.3856 122.446 15.3513C122.796 15.3169 123.087 15.2791 123.32 15.2379V12.8297V12.8297Z" fill="#1F2A38"/>
<path fill-rule="evenodd" clip-rule="evenodd" d="M75.2568 10.0953L73.6692 15.2528H70.4939L72.0815 10.0953H75.2568Z" fill="#1F2A38"/>
<path fill-rule="evenodd" clip-rule="evenodd" d="M74.9494 0.823303L79.4166 15.2592H82.5773L78.1099 0.823303H74.9494Z" fill="#1F2A38"/>
<path fill-rule="evenodd" clip-rule="evenodd" d="M78.114 0.817322L76.4852 6.10598H73.3099L74.9388 0.817837L78.114 0.817322Z" fill="#4E80F9"/>
</g>
<defs>
<clipPath id="clip0_1434_983">
<rect width="123.402" height="20" fill="white"/>
</clipPath>
</defs>
</svg>
